# xmcd
#
# Track frame offsets: 
#        150
#        14127
#        17684
#        23518
#        42450
#        61062
#        74275
#        88902
#        101522
#        118329
#        134305
#        137312
#        161737
#        179300
#        196274
#        199780
#        215991
#        233543
#        248779
#        255870
#        259890
#        277453
#        280460
#        296731
#        309789
#        326168
#        337578
#
# Disc length: 4688 seconds
#
# Revision: 0
# Processed by: cddbd v1.5.2PL0 Copyright (c) Steve Scherf et al.
# Submitted via: ExactAudioCopy v0.95b4
#
DISCID=95124e1b
DTITLE=The Beatles  - AB  Road - Complete Purple Chick Set v1.1 Jan.xx
DTITLE=Various Artist - Bonus  FLAC
DYEAR=1900
DGENRE=
TTITLE0=One After 909 30.08-09-17
TTITLE1=Rocker (I'm Ready) 22.5
TTITLE2=Save The Last Dance For Me - Don't Let Me Down 22.59
TTITLE3=Don't Let Me Down 22.80-22.60
TTITLE4=Dig A Pony 22.70
TTITLE5=I've Got A Feeling 22.71
TTITLE6=Get Back 27.63-28.43
TTITLE7=For You Blue 25.46
TTITLE8=Teddy Boy 24.33
TTITLE9=Two Of Us 24
TTITLE10=Maggie Mae 24.49
TTITLE11=Dig It 26.55-24.85
TTITLE12=Let It Be 31.64
TTITLE13=The Long And Winding Road 26.91
TTITLE14=Get Back (Reprise) 28.43
TTITLE15=Two Of Us 21-31.13
TTITLE16=Dig A Pony 30.11
TTITLE17=Across The Universe
TTITLE18=I Me Mine
TTITLE19=Dig It 26.55-24.85
TTITLE20=Let It Be 31.64
TTITLE21=Maggie Mae 24.49
TTITLE22=I've Got A Feeling 30.06
TTITLE23=One After 909 30.08-09
TTITLE24=The Long And Winding Road 26.91
TTITLE25=For You Blue 8.21-25.46
TTITLE26=Get Back 27.63-30.17
EXTD=
EXTT0=
EXTT1=
EXTT2=
EXTT3=
EXTT4=
EXTT5=
EXTT6=
EXTT7=
EXTT8=
EXTT9=
EXTT10=
EXTT11=
EXTT12=
EXTT13=
EXTT14=
EXTT15=
EXTT16=
EXTT17=
EXTT18=
EXTT19=
EXTT20=
EXTT21=
EXTT22=
EXTT23=
EXTT24=
EXTT25=
EXTT26=
PLAYORDER=
